<mxfile host="app.diagrams.net" agent="Mozilla/5.0 (Macintosh; Intel Mac OS X 10_15_7) AppleWebKit/537.36 (KHTML, like Gecko) Chrome/133.0.0.0 Safari/537.36" version="26.0.16">
  <diagram name="第 1 页" id="xbofDRNFgcab7UaRNV6J">
    <mxGraphModel dx="1380" dy="872" grid="0" gridSize="10" guides="1" tooltips="1" connect="1" arrows="1" fold="1" page="0" pageScale="1" pageWidth="827" pageHeight="1169" math="0" shadow="0">
      <root>
        <mxCell id="0" />
        <mxCell id="1" parent="0" />
        <mxCell id="08TwMSNiIlxwIcO33zME-1" value="ProgramControlller" style="shape=umlLifeline;perimeter=lifelinePerimeter;whiteSpace=wrap;html=1;container=1;collapsible=0;recursiveResize=0;outlineConnect=0;rounded=1;shadow=0;comic=0;labelBackgroundColor=none;strokeWidth=1;fontFamily=Verdana;fontSize=12;align=center;" vertex="1" parent="1">
          <mxGeometry x="260" y="80" width="100" height="740" as="geometry" />
        </mxCell>
        <mxCell id="08TwMSNiIlxwIcO33zME-2" value="" style="html=1;points=[];perimeter=orthogonalPerimeter;rounded=0;shadow=0;comic=0;labelBackgroundColor=none;strokeWidth=1;fontFamily=Verdana;fontSize=12;align=center;" vertex="1" parent="08TwMSNiIlxwIcO33zME-1">
          <mxGeometry x="45" y="100" width="10" height="575" as="geometry" />
        </mxCell>
        <mxCell id="08TwMSNiIlxwIcO33zME-50" value="ALT" style="shape=umlFrame;whiteSpace=wrap;html=1;pointerEvents=0;" vertex="1" parent="1">
          <mxGeometry x="566" y="129" width="770" height="196" as="geometry" />
        </mxCell>
        <mxCell id="08TwMSNiIlxwIcO33zME-3" value="ProgramService" style="shape=umlLifeline;perimeter=lifelinePerimeter;whiteSpace=wrap;html=1;container=1;collapsible=0;recursiveResize=0;outlineConnect=0;rounded=1;shadow=0;comic=0;labelBackgroundColor=none;strokeWidth=1;fontFamily=Verdana;fontSize=12;align=center;" vertex="1" parent="1">
          <mxGeometry x="400" y="80" width="100" height="740" as="geometry" />
        </mxCell>
        <mxCell id="08TwMSNiIlxwIcO33zME-4" value="" style="html=1;points=[];perimeter=orthogonalPerimeter;rounded=0;shadow=0;comic=0;labelBackgroundColor=none;strokeWidth=1;fontFamily=Verdana;fontSize=12;align=center;" vertex="1" parent="08TwMSNiIlxwIcO33zME-3">
          <mxGeometry x="45" y="120" width="10" height="528" as="geometry" />
        </mxCell>
        <mxCell id="08TwMSNiIlxwIcO33zME-11" value="CacheService" style="shape=umlLifeline;perimeter=lifelinePerimeter;whiteSpace=wrap;html=1;container=1;collapsible=0;recursiveResize=0;outlineConnect=0;rounded=1;shadow=0;comic=0;labelBackgroundColor=none;strokeWidth=1;fontFamily=Verdana;fontSize=12;align=center;" vertex="1" parent="1">
          <mxGeometry x="680" y="80" width="100" height="740" as="geometry" />
        </mxCell>
        <mxCell id="08TwMSNiIlxwIcO33zME-56" value="返回权限数据" style="html=1;verticalAlign=bottom;endArrow=open;dashed=1;endSize=6;labelBackgroundColor=none;fontFamily=Verdana;fontSize=12;edgeStyle=elbowEdgeStyle;elbow=vertical;jumpSize=6;" edge="1" parent="08TwMSNiIlxwIcO33zME-11">
          <mxGeometry x="0.013" relative="1" as="geometry">
            <mxPoint x="-81" y="148" as="targetPoint" />
            <Array as="points">
              <mxPoint x="-1" y="148" />
              <mxPoint x="29" y="148" />
            </Array>
            <mxPoint x="42" y="148" as="sourcePoint" />
            <mxPoint as="offset" />
          </mxGeometry>
        </mxCell>
        <mxCell id="08TwMSNiIlxwIcO33zME-8" value="PermissionService" style="shape=umlLifeline;perimeter=lifelinePerimeter;whiteSpace=wrap;html=1;container=1;collapsible=0;recursiveResize=0;outlineConnect=0;rounded=1;shadow=0;comic=0;labelBackgroundColor=none;strokeWidth=1;fontFamily=Verdana;fontSize=12;align=center;" vertex="1" parent="1">
          <mxGeometry x="540" y="80" width="103" height="740" as="geometry" />
        </mxCell>
        <mxCell id="08TwMSNiIlxwIcO33zME-9" value="" style="html=1;points=[];perimeter=orthogonalPerimeter;rounded=0;shadow=0;comic=0;labelBackgroundColor=none;strokeWidth=1;fontFamily=Verdana;fontSize=12;align=center;" vertex="1" parent="08TwMSNiIlxwIcO33zME-8">
          <mxGeometry x="45" y="122" width="10" height="136" as="geometry" />
        </mxCell>
        <mxCell id="08TwMSNiIlxwIcO33zME-67" value="【命中缓存】" style="text;html=1;align=center;verticalAlign=middle;resizable=0;points=[];autosize=1;strokeColor=none;fillColor=none;" vertex="1" parent="08TwMSNiIlxwIcO33zME-8">
          <mxGeometry x="13" y="79" width="90" height="26" as="geometry" />
        </mxCell>
        <mxCell id="08TwMSNiIlxwIcO33zME-68" value="返回权限验证结果" style="html=1;verticalAlign=bottom;endArrow=open;dashed=1;endSize=6;labelBackgroundColor=none;fontFamily=Verdana;fontSize=12;edgeStyle=elbowEdgeStyle;elbow=horizontal;jumpSize=6;" edge="1" parent="08TwMSNiIlxwIcO33zME-8">
          <mxGeometry x="0.0101" relative="1" as="geometry">
            <mxPoint x="-79" y="258" as="targetPoint" />
            <Array as="points">
              <mxPoint x="1" y="272" />
              <mxPoint x="31" y="272" />
            </Array>
            <mxPoint x="42" y="258" as="sourcePoint" />
            <mxPoint as="offset" />
          </mxGeometry>
        </mxCell>
        <mxCell id="08TwMSNiIlxwIcO33zME-17" value="WorkitemTreeService" style="shape=umlLifeline;perimeter=lifelinePerimeter;whiteSpace=wrap;html=1;container=1;collapsible=0;recursiveResize=0;outlineConnect=0;rounded=1;shadow=0;comic=0;labelBackgroundColor=none;strokeWidth=1;fontFamily=Verdana;fontSize=12;align=center;" vertex="1" parent="1">
          <mxGeometry x="820" y="80" width="100" height="740" as="geometry" />
        </mxCell>
        <mxCell id="08TwMSNiIlxwIcO33zME-19" value="" style="html=1;points=[];perimeter=orthogonalPerimeter;rounded=0;shadow=0;comic=0;labelBackgroundColor=none;strokeWidth=1;fontFamily=Verdana;fontSize=12;align=center;" vertex="1" parent="08TwMSNiIlxwIcO33zME-17">
          <mxGeometry x="45" y="450" width="10" height="54" as="geometry" />
        </mxCell>
        <mxCell id="08TwMSNiIlxwIcO33zME-21" value="WorkitemService" style="shape=umlLifeline;perimeter=lifelinePerimeter;whiteSpace=wrap;html=1;container=1;collapsible=0;recursiveResize=0;outlineConnect=0;rounded=1;shadow=0;comic=0;labelBackgroundColor=none;strokeWidth=1;fontFamily=Verdana;fontSize=12;align=center;" vertex="1" parent="1">
          <mxGeometry x="960" y="80" width="100" height="740" as="geometry" />
        </mxCell>
        <mxCell id="08TwMSNiIlxwIcO33zME-23" value="" style="html=1;points=[];perimeter=orthogonalPerimeter;rounded=0;shadow=0;comic=0;labelBackgroundColor=none;strokeWidth=1;fontFamily=Verdana;fontSize=12;align=center;" vertex="1" parent="08TwMSNiIlxwIcO33zME-21">
          <mxGeometry x="45" y="570" width="10" height="45" as="geometry" />
        </mxCell>
        <mxCell id="08TwMSNiIlxwIcO33zME-24" value="创建工作项请求&lt;div&gt;（项目集ID，内容）&lt;/div&gt;" style="html=1;verticalAlign=bottom;endArrow=block;entryX=0;entryY=0;labelBackgroundColor=none;fontFamily=Verdana;fontSize=12;edgeStyle=elbowEdgeStyle;elbow=vertical;" edge="1" parent="1" source="08TwMSNiIlxwIcO33zME-31" target="08TwMSNiIlxwIcO33zME-2">
          <mxGeometry x="0.0058" relative="1" as="geometry">
            <mxPoint x="150" y="180" as="sourcePoint" />
            <mxPoint as="offset" />
          </mxGeometry>
        </mxCell>
        <mxCell id="08TwMSNiIlxwIcO33zME-25" value="create_workite&lt;div&gt;(项目集ID，内容)&lt;/div&gt;" style="html=1;verticalAlign=bottom;endArrow=block;entryX=0;entryY=0;labelBackgroundColor=none;fontFamily=Verdana;fontSize=12;edgeStyle=elbowEdgeStyle;elbow=vertical;" edge="1" parent="1" source="08TwMSNiIlxwIcO33zME-2" target="08TwMSNiIlxwIcO33zME-4">
          <mxGeometry x="0.0009" relative="1" as="geometry">
            <mxPoint x="370" y="200" as="sourcePoint" />
            <mxPoint as="offset" />
          </mxGeometry>
        </mxCell>
        <mxCell id="08TwMSNiIlxwIcO33zME-26" value="AuditLogService" style="shape=umlLifeline;perimeter=lifelinePerimeter;whiteSpace=wrap;html=1;container=1;collapsible=0;recursiveResize=0;outlineConnect=0;rounded=1;shadow=0;comic=0;labelBackgroundColor=none;strokeWidth=1;fontFamily=Verdana;fontSize=12;align=center;" vertex="1" parent="1">
          <mxGeometry x="1100" y="80" width="100" height="740" as="geometry" />
        </mxCell>
        <mxCell id="08TwMSNiIlxwIcO33zME-30" value="" style="html=1;points=[];perimeter=orthogonalPerimeter;rounded=0;shadow=0;comic=0;labelBackgroundColor=none;strokeWidth=1;fontFamily=Verdana;fontSize=12;align=center;" vertex="1" parent="08TwMSNiIlxwIcO33zME-26">
          <mxGeometry x="45" y="458" width="10" height="37" as="geometry" />
        </mxCell>
        <mxCell id="08TwMSNiIlxwIcO33zME-31" value="" style="shape=umlLifeline;perimeter=lifelinePerimeter;whiteSpace=wrap;html=1;container=1;dropTarget=0;collapsible=0;recursiveResize=0;outlineConnect=0;portConstraint=eastwest;newEdgeStyle={&quot;curved&quot;:0,&quot;rounded&quot;:0};participant=umlActor;" vertex="1" parent="1">
          <mxGeometry x="147" y="80" width="46" height="740" as="geometry" />
        </mxCell>
        <mxCell id="08TwMSNiIlxwIcO33zME-35" value="&lt;span style=&quot;font-family: Helvetica; text-align: left; text-wrap-mode: wrap;&quot;&gt;验证用户权限&lt;/span&gt;&lt;div&gt;&lt;span style=&quot;font-family: Helvetica; text-align: left; text-wrap-mode: wrap;&quot;&gt;(用户ID, 项目集ID, &quot;CREATE_WORKITEM&quot;)&lt;/span&gt;&lt;/div&gt;" style="html=1;verticalAlign=bottom;endArrow=block;labelBackgroundColor=none;fontFamily=Verdana;fontSize=12;edgeStyle=elbowEdgeStyle;elbow=vertical;" edge="1" parent="1">
          <mxGeometry x="-0.0002" relative="1" as="geometry">
            <mxPoint x="457" y="204" as="sourcePoint" />
            <mxPoint x="583" y="204" as="targetPoint" />
            <mxPoint as="offset" />
          </mxGeometry>
        </mxCell>
        <mxCell id="08TwMSNiIlxwIcO33zME-41" value="返回迭代视图" style="html=1;verticalAlign=bottom;endArrow=open;dashed=1;endSize=6;labelBackgroundColor=none;fontFamily=Verdana;fontSize=12;edgeStyle=elbowEdgeStyle;elbow=vertical;jumpSize=6;" edge="1" parent="1">
          <mxGeometry x="-0.0024" relative="1" as="geometry">
            <mxPoint x="170" y="752" as="targetPoint" />
            <Array as="points">
              <mxPoint x="250" y="752" />
              <mxPoint x="280" y="752" />
            </Array>
            <mxPoint x="309" y="752" as="sourcePoint" />
            <mxPoint as="offset" />
          </mxGeometry>
        </mxCell>
        <mxCell id="08TwMSNiIlxwIcO33zME-42" value="聚合结果" style="html=1;verticalAlign=bottom;endArrow=open;dashed=1;endSize=6;labelBackgroundColor=none;fontFamily=Verdana;fontSize=12;edgeStyle=elbowEdgeStyle;elbow=vertical;jumpSize=6;" edge="1" parent="1">
          <mxGeometry x="0.013" relative="1" as="geometry">
            <mxPoint x="317" y="730" as="targetPoint" />
            <Array as="points">
              <mxPoint x="397" y="730" />
              <mxPoint x="427" y="730" />
            </Array>
            <mxPoint x="440" y="730" as="sourcePoint" />
            <mxPoint as="offset" />
          </mxGeometry>
        </mxCell>
        <mxCell id="08TwMSNiIlxwIcO33zME-43" value="Model" style="shape=umlLifeline;perimeter=lifelinePerimeter;whiteSpace=wrap;html=1;container=1;collapsible=0;recursiveResize=0;outlineConnect=0;rounded=1;shadow=0;comic=0;labelBackgroundColor=none;strokeWidth=1;fontFamily=Verdana;fontSize=12;align=center;" vertex="1" parent="1">
          <mxGeometry x="1240" y="80" width="100" height="740" as="geometry" />
        </mxCell>
        <mxCell id="08TwMSNiIlxwIcO33zME-45" value="" style="html=1;points=[];perimeter=orthogonalPerimeter;rounded=0;shadow=0;comic=0;labelBackgroundColor=none;strokeWidth=1;fontFamily=Verdana;fontSize=12;align=center;" vertex="1" parent="08TwMSNiIlxwIcO33zME-43">
          <mxGeometry x="45" y="187" width="10" height="30" as="geometry" />
        </mxCell>
        <mxCell id="08TwMSNiIlxwIcO33zME-47" value="" style="html=1;points=[];perimeter=orthogonalPerimeter;rounded=0;shadow=0;comic=0;labelBackgroundColor=none;strokeWidth=1;fontFamily=Verdana;fontSize=12;align=center;" vertex="1" parent="08TwMSNiIlxwIcO33zME-43">
          <mxGeometry x="45" y="458" width="10" height="37" as="geometry" />
        </mxCell>
        <mxCell id="08TwMSNiIlxwIcO33zME-53" value="获取用户权限&lt;div&gt;(用户ID、项目集ID)&lt;/div&gt;" style="html=1;verticalAlign=bottom;endArrow=block;entryX=0;entryY=0;labelBackgroundColor=none;fontFamily=Verdana;fontSize=12;edgeStyle=elbowEdgeStyle;elbow=vertical;" edge="1" parent="1">
          <mxGeometry x="0.0009" relative="1" as="geometry">
            <mxPoint x="597" y="210.19" as="sourcePoint" />
            <mxPoint x="727" y="210.19" as="targetPoint" />
            <mxPoint as="offset" />
          </mxGeometry>
        </mxCell>
        <mxCell id="08TwMSNiIlxwIcO33zME-59" value="更新缓存数据" style="html=1;verticalAlign=bottom;endArrow=block;labelBackgroundColor=none;fontFamily=Verdana;fontSize=12;edgeStyle=elbowEdgeStyle;elbow=vertical;" edge="1" parent="1">
          <mxGeometry x="-0.0016" relative="1" as="geometry">
            <mxPoint x="593" y="315.11" as="sourcePoint" />
            <mxPoint x="729.5" y="315.44333333333327" as="targetPoint" />
            <mxPoint as="offset" />
          </mxGeometry>
        </mxCell>
        <mxCell id="08TwMSNiIlxwIcO33zME-65" value="" style="endArrow=none;html=1;rounded=0;dashed=1;dashPattern=12 12;" edge="1" parent="1">
          <mxGeometry width="50" height="50" relative="1" as="geometry">
            <mxPoint x="566" y="241" as="sourcePoint" />
            <mxPoint x="1333" y="241" as="targetPoint" />
          </mxGeometry>
        </mxCell>
        <mxCell id="08TwMSNiIlxwIcO33zME-58" value="权限数据" style="html=1;verticalAlign=bottom;endArrow=open;dashed=1;endSize=6;labelBackgroundColor=none;fontFamily=Verdana;fontSize=12;edgeStyle=elbowEdgeStyle;elbow=vertical;jumpSize=6;" edge="1" parent="1">
          <mxGeometry x="-0.0024" relative="1" as="geometry">
            <mxPoint x="590.9988888888889" y="295" as="targetPoint" />
            <Array as="points">
              <mxPoint x="1097.29" y="295" />
              <mxPoint x="1127.29" y="295" />
            </Array>
            <mxPoint x="1282.29" y="295" as="sourcePoint" />
            <mxPoint as="offset" />
          </mxGeometry>
        </mxCell>
        <mxCell id="08TwMSNiIlxwIcO33zME-57" value="查找数据库role_permission表" style="html=1;verticalAlign=bottom;endArrow=block;labelBackgroundColor=none;fontFamily=Verdana;fontSize=12;edgeStyle=elbowEdgeStyle;elbow=vertical;" edge="1" parent="1">
          <mxGeometry x="-0.0014" relative="1" as="geometry">
            <mxPoint x="592" y="271.2200000000001" as="sourcePoint" />
            <mxPoint x="1284.5" y="270.99777777777786" as="targetPoint" />
            <mxPoint as="offset" />
          </mxGeometry>
        </mxCell>
        <mxCell id="08TwMSNiIlxwIcO33zME-66" value="【未命中缓存】" style="text;html=1;align=center;verticalAlign=middle;resizable=0;points=[];autosize=1;strokeColor=none;fillColor=none;" vertex="1" parent="1">
          <mxGeometry x="554" y="241" width="102" height="26" as="geometry" />
        </mxCell>
      </root>
    </mxGraphModel>
  </diagram>
</mxfile>
